<svg xmlns="http://www.w3.org/2000/svg" viewBox="0 0 600 500" fill="none">
  <style>
    .zone-fill { fill: rgba(99, 102, 241, 0.08); stroke: rgba(99, 102, 241, 0.3); stroke-width: 1.5; rx: 8; }
    .zone-label { fill: #a5b4fc; font-family: 'Inter', sans-serif; font-size: 11px; font-weight: 600; text-anchor: middle; }
    .zone-id { fill: #55556a; font-family: 'JetBrains Mono', monospace; font-size: 8px; text-anchor: middle; }
    .field { fill: rgba(16, 185, 129, 0.06); stroke: rgba(16, 185, 129, 0.2); stroke-width: 1; stroke-dasharray: 4 2; }
    .field-label { fill: #10b981; font-family: 'Inter', sans-serif; font-size: 10px; font-weight: 500; text-anchor: middle; opacity: 0.6; }
    .connector { stroke: rgba(255, 255, 255, 0.06); stroke-width: 1; stroke-dasharray: 3 3; }
  </style>

  <!-- Background -->
  <rect width="600" height="500" fill="#06060b" rx="16"/>

  <!-- Field / Pitch (center) -->
  <rect class="field" x="200" y="160" width="200" height="120" rx="4"/>
  <text class="field-label" x="300" y="225">PITCH</text>

  <!-- Gate North (top center) -->
  <rect class="zone-fill" x="225" y="20" width="150" height="50"/>
  <text class="zone-label" x="300" y="45">Gate North</text>
  <text class="zone-id" x="300" y="60">gate_north</text>
  <line class="connector" x1="300" y1="70" x2="300" y2="160"/>

  <!-- Gate South (bottom center) -->
  <rect class="zone-fill" x="225" y="380" width="150" height="50"/>
  <text class="zone-label" x="300" y="405">Gate South</text>
  <text class="zone-id" x="300" y="420">gate_south</text>
  <line class="connector" x1="300" y1="280" x2="300" y2="380"/>

  <!-- Gate East (right) -->
  <rect class="zone-fill" x="480" y="185" width="100" height="70"/>
  <text class="zone-label" x="530" y="218">Gate East</text>
  <text class="zone-id" x="530" y="233">gate_east</text>
  <line class="connector" x1="400" y1="220" x2="480" y2="220"/>

  <!-- Gate West (left) -->
  <rect class="zone-fill" x="20" y="185" width="100" height="70"/>
  <text class="zone-label" x="70" y="218">Gate West</text>
  <text class="zone-id" x="70" y="233">gate_west</text>
  <line class="connector" x1="120" y1="220" x2="200" y2="220"/>

  <!-- Concourse A (upper left) -->
  <rect class="zone-fill" x="30" y="85" width="140" height="60"/>
  <text class="zone-label" x="100" y="113">Concourse A</text>
  <text class="zone-id" x="100" y="128">concourse_a</text>
  <line class="connector" x1="170" y1="115" x2="225" y2="160"/>

  <!-- Concourse B (upper right) -->
  <rect class="zone-fill" x="430" y="85" width="140" height="60"/>
  <text class="zone-label" x="500" y="113">Concourse B</text>
  <text class="zone-id" x="500" y="128">concourse_b</text>
  <line class="connector" x1="430" y1="115" x2="375" y2="160"/>

  <!-- Main Stand Area (below pitch) -->
  <rect class="zone-fill" x="175" y="295" width="250" height="55"/>
  <text class="zone-label" x="300" y="322">Main Stand Area</text>
  <text class="zone-id" x="300" y="337">main_stand</text>

  <!-- Exit Corridor South (bottom) -->
  <rect class="zone-fill" x="225" y="445" width="150" height="40"/>
  <text class="zone-label" x="300" y="467">Exit Corridor South</text>
  <text class="zone-id" x="300" y="478">exit_south</text>
  <line class="connector" x1="300" y1="430" x2="300" y2="445"/>
</svg>
